<svg width="1213" height="180" viewBox="0 0 1213 180" fill="none" xmlns="http://www.w3.org/2000/svg">
<path d="M112.691 33.4269C142.454 33.4269 166.582 57.7018 166.582 87.6464V147.573C154.05 147.573 143.891 137.352 143.891 124.744V87.6464C143.891 70.3101 129.922 56.2561 112.691 56.2561H97.9384C90.4161 56.2563 83.2009 59.2622 77.8816 64.6137L39.433 103.3C37.3054 105.44 36.1093 108.343 36.1091 111.37V113.329C36.1091 119.633 41.1887 124.744 47.4545 124.744H98.5091C98.5091 136.958 88.9758 146.931 76.987 147.543L75.8182 147.573H47.4545C28.6568 147.573 13.4182 132.242 13.4182 113.329V111.37C13.4184 102.289 17.0041 93.5777 23.387 87.1558L61.8386 48.4727C71.413 38.8398 84.3982 33.427 97.9384 33.4269H112.691Z" fill="#196FEB"/>
<path d="M118.364 67.6708C126.196 67.6708 132.545 74.059 132.545 81.9391V147.573C120.014 147.573 109.855 137.352 109.855 124.744V90.5H100.37L81.8333 109.15C79.1736 111.826 75.5666 113.329 71.8053 113.329H48.8089C47.6213 113.329 47.0265 111.885 47.8664 111.04L86.8202 71.8508C89.4795 69.1752 93.086 67.6708 96.8473 67.6708H118.364Z" fill="#196FEB"/>
<path d="M212 137.471L244.037 42.5293H270.225L302.262 137.471H280.777L274.42 118.1H239.714L233.358 137.471H212ZM245.181 100.896H268.954L254.461 56.0377H259.801L245.181 100.896Z" fill="#212529"/>
<path d="M312.104 137.471V42.5293H331.809V120.267H371.855V137.471H312.104Z" fill="#212529"/>
<path d="M381.628 137.471V42.5293H421.673C428.199 42.5293 433.793 43.6337 438.454 45.8427C443.116 48.0516 446.675 51.2375 449.133 55.4005C451.591 59.4785 452.82 64.4486 452.82 70.3108C452.82 74.4738 451.676 78.4668 449.388 82.29C447.099 86.0282 443.328 89.1716 438.073 91.7204V82.0351C443.073 83.9892 446.93 86.3255 449.642 89.0442C452.354 91.7629 454.218 94.7365 455.235 97.9649C456.253 101.108 456.761 104.422 456.761 107.905C456.761 117.251 453.668 124.515 447.481 129.697C441.294 134.879 432.691 137.471 421.673 137.471H381.628ZM401.333 120.267H423.962C427.945 120.267 431.123 119.12 433.496 116.826C435.87 114.532 437.056 111.558 437.056 107.905C437.056 104.167 435.87 101.151 433.496 98.857C431.123 96.5631 427.945 95.4161 423.962 95.4161H401.333V120.267ZM401.333 78.212H423.072C426.123 78.212 428.538 77.3624 430.318 75.6632C432.183 73.8791 433.115 71.5427 433.115 68.6541C433.115 65.7655 432.183 63.4716 430.318 61.7724C428.538 59.9883 426.123 59.0962 423.072 59.0962H401.333V78.212Z" fill="#212529"/>
<path d="M469.401 137.471V42.5293H489.106V137.471H469.401Z" fill="#212529"/>
<path d="M505.901 137.471V42.5293H542.133C548.659 42.5293 554.422 43.6762 559.423 45.9701C564.508 48.264 568.491 51.6623 571.373 56.1652C574.254 60.668 575.695 66.2328 575.695 72.8596C575.695 79.3164 574.212 84.8387 571.246 89.4265C568.279 93.9293 564.296 97.3277 559.296 99.6216L580.907 137.471H558.787L535.395 95.5436L548.108 103.062H525.606V137.471H505.901ZM525.606 85.8583H542.26C545.057 85.8583 547.473 85.306 549.507 84.2016C551.541 83.0971 553.109 81.5678 554.21 79.6138C555.397 77.6597 555.99 75.4083 555.99 72.8596C555.99 70.2258 555.397 67.9319 554.21 65.9779C553.109 64.0238 551.541 62.4946 549.507 61.3901C547.473 60.2857 545.057 59.7334 542.26 59.7334H525.606V85.8583Z" fill="#212529"/>
<path d="M590.695 137.471V42.5293H626.927C633.453 42.5293 639.216 43.6762 644.217 45.9701C649.302 48.264 653.285 51.6623 656.167 56.1652C659.048 60.668 660.489 66.2328 660.489 72.8596C660.489 79.3164 659.006 84.8387 656.04 89.4265C653.073 93.9293 649.09 97.3277 644.09 99.6216L665.702 137.471H643.581L620.189 95.5436L632.902 103.062H610.4V137.471H590.695ZM610.4 85.8583H627.054C629.851 85.8583 632.267 85.306 634.301 84.2016C636.335 83.0971 637.903 81.5678 639.004 79.6138C640.191 77.6597 640.784 75.4083 640.784 72.8596C640.784 70.2258 640.191 67.9319 639.004 65.9779C637.903 64.0238 636.335 62.4946 634.301 61.3901C632.267 60.2857 629.851 59.7334 627.054 59.7334H610.4V85.8583Z" fill="#212529"/>
<path d="M713.12 139C705.661 139 699.008 137.428 693.16 134.285C687.312 131.141 682.693 126.851 679.303 121.414C675.998 115.891 674.345 109.647 674.345 102.68V42.5293H694.05V101.406C694.05 105.144 694.855 108.542 696.466 111.601C698.161 114.574 700.449 116.911 703.331 118.61C706.212 120.309 709.475 121.159 713.12 121.159C716.849 121.159 720.112 120.309 722.909 118.61C725.79 116.911 728.036 114.574 729.646 111.601C731.341 108.542 732.189 105.144 732.189 101.406V42.5293H751.894V102.68C751.894 109.647 750.199 115.891 746.809 121.414C743.503 126.851 738.927 131.141 733.079 134.285C727.231 137.428 720.578 139 713.12 139Z" fill="#212529"/>
<path d="M807.363 137.471V59.7334H783.336V42.5293H850.714V59.7334H827.068V137.471H807.363Z" fill="#212529"/>
<path d="M860.472 137.471V42.5293H896.704C903.23 42.5293 908.993 43.6762 913.993 45.9701C919.078 48.264 923.062 51.6623 925.943 56.1652C928.825 60.668 930.266 66.2328 930.266 72.8596C930.266 79.3164 928.783 84.8387 925.816 89.4265C922.85 93.9293 918.867 97.3277 913.866 99.6216L935.478 137.471H913.358L889.966 95.5436L902.679 103.062H880.177V137.471H860.472ZM880.177 85.8583H896.831C899.628 85.8583 902.043 85.306 904.077 84.2016C906.111 83.0971 907.679 81.5678 908.781 79.6138C909.968 77.6597 910.561 75.4083 910.561 72.8596C910.561 70.2258 909.968 67.9319 908.781 65.9779C907.679 64.0238 906.111 62.4946 904.077 61.3901C902.043 60.2857 899.628 59.7334 896.831 59.7334H880.177V85.8583Z" fill="#212529"/>
<path d="M938.274 137.471L970.31 42.5293H996.499L1028.54 137.471H1007.05L1000.69 118.1H965.988L959.632 137.471H938.274ZM971.455 100.896H995.228L980.735 56.0377H986.075L971.455 100.896Z" fill="#212529"/>
<path d="M1038.38 137.471V42.5293H1053.51L1104.36 109.689L1096.22 111.601V42.5293H1115.93V137.471H1100.67L1050.71 69.801L1058.08 67.8895V137.471H1038.38Z" fill="#212529"/>
<path d="M1167.18 139C1161.25 139 1155.66 137.938 1150.4 135.814C1145.23 133.605 1140.74 130.504 1136.93 126.511C1133.2 122.518 1130.4 117.803 1128.54 112.365L1144.68 105.101C1147.05 110.284 1150.32 114.362 1154.47 117.335C1158.71 120.309 1163.37 121.796 1168.45 121.796C1171.17 121.796 1173.5 121.371 1175.45 120.521C1177.4 119.672 1178.92 118.525 1180.02 117.081C1181.13 115.551 1181.68 113.767 1181.68 111.728C1181.68 109.519 1181 107.65 1179.64 106.121C1178.29 104.507 1176.17 103.232 1173.29 102.298L1154.72 96.1808C1147.18 93.7169 1141.5 90.2336 1137.69 85.7308C1133.88 81.143 1131.97 75.6632 1131.97 69.2913C1131.97 63.684 1133.32 58.7564 1136.04 54.5085C1138.83 50.2605 1142.69 46.9471 1147.61 44.5683C1152.61 42.1894 1158.33 41 1164.77 41C1170.45 41 1175.7 41.977 1180.53 43.9311C1185.36 45.8851 1189.52 48.6463 1192.99 52.2146C1196.55 55.7828 1199.22 60.0733 1201 65.0858L1184.98 72.3498C1183.2 67.9319 1180.53 64.4911 1176.97 62.0273C1173.41 59.4785 1169.34 58.2042 1164.77 58.2042C1162.14 58.2042 1159.81 58.629 1157.78 59.4785C1155.74 60.3281 1154.17 61.56 1153.07 63.1743C1151.97 64.7035 1151.42 66.4876 1151.42 68.5267C1151.42 70.7356 1152.14 72.6896 1153.58 74.3888C1155.02 76.003 1157.18 77.2774 1160.06 78.212L1178.24 84.0741C1185.87 86.5379 1191.55 89.9788 1195.28 94.3966C1199.09 98.8145 1201 104.209 1201 110.581C1201 116.104 1199.56 121.031 1196.68 125.364C1193.8 129.612 1189.81 132.968 1184.73 135.432C1179.73 137.811 1173.88 139 1167.18 139Z" fill="#212529"/>
</svg>
