<svg width="180" height="180" viewBox="0 0 180 180" fill="none" xmlns="http://www.w3.org/2000/svg">
<path d="M112.691 33.4268C142.454 33.4268 166.582 57.7017 166.582 87.6463V147.573C154.05 147.573 143.891 137.352 143.891 124.744V87.6463C143.891 70.31 129.922 56.256 112.691 56.256H97.9384C90.4161 56.2561 83.201 59.262 77.8817 64.6135L39.433 103.3C37.3055 105.44 36.1093 108.343 36.1091 111.37V113.329C36.1091 119.633 41.1888 124.744 47.4546 124.744H98.5091C98.5091 136.958 88.9758 146.93 76.9871 147.543L75.8182 147.573H47.4546C28.6568 147.573 13.4182 132.242 13.4182 113.329V111.37C13.4184 102.288 17.0041 93.5776 23.387 87.1557L61.8386 48.4726C71.4131 38.8397 84.3982 33.4269 97.9384 33.4268H112.691Z" fill="#196FEB"/>
<path d="M118.364 67.6707C126.196 67.6707 132.545 74.0589 132.545 81.9389V147.573C120.014 147.573 109.855 137.352 109.855 124.744V90.4999H100.37L81.8333 109.15C79.1736 111.826 75.5666 113.329 71.8053 113.329H48.809C47.6214 113.329 47.0266 111.884 47.8664 111.039L86.8202 71.8507C89.4796 69.1751 93.086 67.6707 96.8473 67.6707H118.364Z" fill="#196FEB"/>
</svg>
