<svg width="192" height="192" viewBox="0 0 192 192" fill="none" xmlns="http://www.w3.org/2000/svg">
<path d="M120.436 34.5244C152.489 34.5244 178.473 60.4591 178.473 92.4512V156.476C164.977 156.476 154.036 145.556 154.036 132.085V92.4512C154.036 73.9296 138.993 58.9147 120.436 58.9147H104.549C96.448 58.9148 88.6779 62.1262 82.9494 67.8436L41.5431 109.175C39.252 111.462 37.9638 114.563 37.9636 117.797V119.89C37.9636 126.625 43.434 132.085 50.1818 132.085H105.164C105.164 145.134 94.8969 155.789 81.986 156.443L80.7272 156.476H50.1818C29.938 156.476 13.5272 140.096 13.5272 119.89V117.797C13.5274 108.095 17.389 98.7881 24.2629 91.9272L65.6723 50.599C75.9832 40.3075 89.9672 34.5245 104.549 34.5244H120.436Z" fill="#196FEB"/>
<path d="M126.545 71.1099C134.98 71.1099 141.818 77.9349 141.818 86.3538V156.476C128.322 156.476 117.382 145.556 117.382 132.085V95.5001H107.168L87.205 115.425C84.3408 118.284 80.4563 119.89 76.4057 119.89H51.6403C50.3614 119.89 49.7209 118.347 50.6253 117.444L92.5755 75.5757C95.4395 72.7172 99.3233 71.1099 103.374 71.1099H126.545Z" fill="#196FEB"/>
</svg>
