<svg width="512" height="512" viewBox="0 0 512 512" fill="none" xmlns="http://www.w3.org/2000/svg">
<path d="M325.818 80.3779C417.397 80.3779 491.636 154.862 491.636 246.744V430.622C453.077 430.622 421.818 399.26 421.818 360.573V246.744C421.818 193.55 378.837 150.427 325.818 150.427H280.426C257.28 150.427 235.08 159.65 218.713 176.071L100.409 294.774C93.8629 301.342 90.1824 310.249 90.1818 319.538V325.549C90.1818 344.892 105.811 360.573 125.091 360.573H282.182C282.182 398.05 252.849 428.65 215.96 430.528L212.364 430.622H125.091C67.2517 430.622 20.3636 383.579 20.3636 325.549V319.538C20.3642 291.671 31.3973 264.943 51.037 245.239L169.35 126.544C198.809 96.9869 238.764 80.3783 280.426 80.3779H325.818Z" fill="#196FEB"/>
<path d="M343.273 185.451C367.372 185.451 386.909 205.053 386.909 229.232V430.622C348.349 430.622 317.091 399.26 317.091 360.573V255.5H287.909L230.872 312.725C222.688 320.936 211.59 325.549 200.016 325.549H129.258C125.604 325.549 123.774 321.116 126.358 318.523L246.216 198.277C254.399 190.067 265.495 185.451 277.069 185.451H343.273Z" fill="#196FEB"/>
</svg>
